<?xml version="1.0" encoding="UTF-8"?>
<svg id="Layer_1" data-name="Layer 1" xmlns="http://www.w3.org/2000/svg" viewBox="0 0 512 512">
  <defs>
    <style>
      .cls-1 {
        stroke-width: 0px;
      }
    </style>
  </defs>
  <path class="cls-1" d="m487.02,862.04c-7-24.82-15.76-48.96-26.16-72.51-5.88-13.32-10.69-26.99-15.1-40.83-7.45-23.35-13.7-47.04-19.67-70.8-4.24-16.86-9.07-33.61-10.73-51.02-.55-5.75-1.1-11.47-.79-17.26.09-1.66.52-2.97,1.59-4.21,1.74-2.01,3.36-4.13,5.09-6.15,3.23-3.77,4.62-8,3.45-12.93-.31-1.29-.53-2.61-.9-3.88-1.64-5.66-2.61-11.45-3.26-17.3-.88-7.83.02-15.16,4.7-21.9,2.76-3.99,4.84-8.46,6.78-12.95.89-2.05,1.98-3.99,3.52-5.61,2.01-2.1,3.3-4.49,4.5-7.19,1.67-3.77,1.2-6.8-.89-9.99-1.21-1.86-2.34-3.77-3.53-5.64-.57-.89-.95-1.76-.18-2.74,1.47-1.87,1.56-4.11,1.63-6.33.12-3.42.15-6.85-.46-10.33,1.41-.86,2.87-1.35,4.27-1.98,3.2-1.47,5.46-3.62,5.39-7.59-.04-2.7-.53-5.27-1.23-7.84-1.01-3.7-.72-4.33,2.65-6.01,3.37-1.68,3.64-2.15,3.37-5.95-.05-.77-.14-1.55-.28-2.31-1.85-9.69-3.87-19.34-6.16-28.94-.7-2.92-1.72-5.72-3.11-8.4-2.62-5.03-6.97-6.39-12.36-4.58-3.03,1.02-5.96,2.31-8.87,3.45-.75-.66-.98-1.42-1.15-2.17-.26-1.19-.43-2.4-.62-3.6-1.75-11.01-4.45-21.72-9.97-31.53-.61-1.07-.81-1.9-.12-3.04,4.81-7.83,7.8-16.4,10.08-25.23,4.86-18.82,5.92-38.11,6.43-57.4.41-15.75-.77-31.47-2.34-47.16-1.49-14.9-3.27-29.78-6.37-44.42-5.58-26.35-10.96-52.75-17.78-78.82-4.72-18.06-12.17-34.93-22.59-50.46-9.7-14.45-21.83-26.41-36.13-36.35-16.76-11.65-34.94-19.75-55.11-22.87-28.34-4.38-56.13-2.01-83.23,7.72-18.93,6.8-34.71,18.16-48.01,33.01-14.93,16.67-23.59,36.62-29.02,58.05-5.39,21.29-8.72,43.01-12.88,64.55-3.22,16.67-5.14,33.52-6.8,50.41-1.76,17.89-3.03,35.8-3.46,53.78-.42,17.31.05,34.61,1.15,51.89.67,10.62,1.69,21.22,3.29,31.76.81,5.35,1.84,10.67,3.17,15.87-1.06,1.12-2.3,1.33-3.42,1.73-4.28,1.56-8.42,3.36-12.38,5.66-2.31,1.33-4.16,2.99-5.27,5.35-2.4,5.11-5.25,10.03-6.95,15.44-3.22,10.23-4.58,20.76-4.78,31.45q-.05,2.63-2.55,3.49c-5.25,1.79-10.5,3.56-15.74,5.36-2.73.94-5.58,1.82-7.76,3.73-5.37,4.72-7.29,7.58-4.81,14.34,2.1,5.73,4.23,11.43,7,16.88,6.19,12.18,14.04,23.37,20.87,35.17.79,1.37,1.98,2.37,3.28,3.26,1.43.98,2.24,2.3,2.69,4.03.72,2.78,1.65,5.52,2.69,8.2.49,1.27.45,2.28-.18,3.45-1.31,2.44-2.54,4.93-3.4,7.58-.63,1.93-.28,3.53.9,5.29,3.48,5.2,7.82,9.62,12.05,14.16,4.04,4.33,5.28,3.48,1.85,10.87-.05.1-.09.2-.15.3-1.82,3.07-2.25,6.46-2.18,9.94.07,3.12.57,6.17,1.29,9.2,1.23,5.19,2.82,10.27,4.53,15.3,1.11,3.29,1.16,6.52.28,9.81-.52,1.93-1.15,3.82-1.7,5.74-1.09,3.84-2.33,7.65-2.92,11.6-.51,3.45.4,5.04,3.48,6.77.38.21.74.44,1.43.85-2.06,4.09-2.98,8.35-5.72,11.87-1.54,1.98-1.62,4.52-.2,6.9,1.36,2.29,2.59,4.65,3.83,7,2.06,3.89,4.06,7.66,4.23,12.36.18,4.95,1.83,9.78,2.47,14.73.36,2.8,1.87,5.17,4.16,6.98,2.1,1.65,4.25,3.2,6.62,4.44,3.15,1.65,6.44,2.97,9.72,4.31,3.54,1.45,3.6,1.45,3.32,5.37-.25,3.54-.64,7.07-.96,10.6-.7,7.84-1.97,15.62-3,23.42-1.25,9.45-2.18,18.95-3.56,28.38-2.44,16.67-5.14,33.31-7.7,49.96-1.89,12.3-3.85,24.56-10.64,35.39-.59.94-1.01,1.97-1.55,2.94-7.55,13.46-14.14,27.41-20.04,41.64-6.61,15.97-10.6,32.66-11.07,50.07-.19,6.99-.62,13.97.06,20.95.45,4.64.93,9.25,2.54,13.69,2.19,6.07,4.86,11.9,7.99,17.53.69,1.25,1.41,2.57,1.73,3.94,2.22,9.34,5.65,18.14,10.4,26.53,1.89,3.34,4.19,5.92,7.31,7.9,2.44,1.54,4.98,2.9,7.41,4.45,1.45.92,2.76.82,4.9-.12-7.31-3.36-12.7-7.98-17.28-14.46,2.02.42,2.93,1.44,3.98,2.19,1.44,1.03,2.78,2.22,4.3,3.12,5.05,3.01,5.85,2.72,7.94-2.66.94-2.42,1.83-4.86,2.78-7.39,2.8,1.34,4.17,3.45,4.99,5.93.98,2.95,1.75,5.95,2.2,9.04.17,1.17.14,2.45,1.13,3.33,1.27.1,1.65-.57,1.44-1.64-.42-2.18-.92-4.34-1.34-6.51-.96-4.97-3.04-9.23-7.3-12.25-1.28-.91-2.2-2.14-2.59-3.75-1.11-4.68-1.67-9.37-.74-14.17,2.41-12.4,6.72-24.03,12.8-35.15,9.06-16.58,18.92-32.61,30.8-47.33.59-.73.91-1.83,2.26-1.88,1.06,4.31,2.85,8.35,4.52,12.45,2.25,5.55,4.71,11.02,6.64,16.68,1.1,3.2,2.78,5.49,5.85,6.74,1.7.69,2.45,1.96,3.01,3.65,3.67,11.04,7.27,22.12,11.24,33.05,3.71,10.21,7.85,20.26,11.82,30.37,1.25,3.18,2.22,6.48,3.92,9.66,98.32-11.39,196.22-25.26,294.51-36.2.09-.84.2-1.38.2-1.92,0-3.88-.02-7.76-.03-11.64,0-3.22-.03-6.5.98-9.57,2.8-8.52,3.76-17.27,4.06-26.19.51-15.14-.71-30.14-3.25-45.02-2.82-16.5-6.5-32.8-11.05-48.95Zm-52.3-339.96c.2-1.03.45-1.32.96-1.39.12.71-.39.74-.96,1.39Zm2.29-10.37c-.13.73.07,1.55.23,2.3.34,1.58-.27,2.68-1.35,3.84-4.11,4.45-8.02,9.07-10.53,14.7-1.13,2.53-2.5,4.95-4.32,7.07-2.16,2.52-2.63,5.58-2.59,8.68.02,1.3-.22,2.31-.74,3.44-1.01,2.22-1.85,4.51-2.72,6.78-.19.5-.33,1.07.17,1.52.81.35,1.09-.58,1.67-.75.16.2.38.36.39.52.28,7.11.98,14.14,3.27,20.93.49,1.47,1.02,2.86.34,4.49-.47,1.14-.07,2.52.44,3.56,1.33,2.71.38,4.93-1.09,7.12-.55.82-.93,1.76-1.76,2.35-.71-.13-.16-1.15-.98-1.21-.68.03-1.13.57-1.56,1.05-1.51,1.7-3.07,2.83-5.49,1.56-1.17-.61-2.08.13-2.75,1.18-.63.98-.95,2.31-2.43,2.44-1.98-2.5-5.24-13.64-5.5-18.93,2.82.3,4.92,2.88,7.88,2.8.14-1.53-.96-1.67-1.62-2.11-1.75-1.17-3.56-2.25-5.35-3.35-1.93-1.18-3.44-2.74-4.62-4.68-2.37-3.9-5.04-7.57-8.62-10.47-1.14-.92-1.86-2.17-2.52-3.47-7.49-14.84-15.11-29.6-22.97-44.24-.79-1.46-1.56-2.94-2.31-4.42-.55-1.1-1-2.22-.56-3.5.42-1.25-.01-2.46-.49-3.55-1.22-2.78.42-5,1.92-6.59,1.45-1.54,3.92-1.55,6.22-.56,7.23,3.12,14.29,6.56,21.09,10.54,4.04,2.37,8.4,3.96,12.99,4.94.74.16,1.5.55,2.24-.52-1.38-1.98-3.87-1.57-5.73-2.42-2.01-.92-4.05-1.78-5.99-2.85-1.84-1.02-3.68-2.05-5.53-3.05-1.93-1.05-3.97-1.93-5.63-3.43.17-.18.38-.44.41-.42,1.77,1.1,3.55,1.29,5.64.74,1.55-.41,3.33-.29,4.96-.03,5.74.89,11.47.53,17.22.27,4.32-.19,8.62-.33,12.82-1.46,1.22-.33,1.86.27,2.41,1.22,1.27,2.21,3.12,2.57,5.4,1.73,1.55-.57,3.14-1.04,4.95-1.64,1.51,2.42,3.72,4.53,3.1,7.91Zm-26.46,106.33c-.84-2.22.29-3.48.79-4.86.15,1.5,0,2.95-.79,4.86Zm-23.3,28.6c-2.67,1.64-6.23,1.58-8.28,4.44-2.15,2.99-4.84,5.46-8.05,7.28-2.16,1.22-3.34,3.46-5.49,4.76-2.19,1.33-4.28,2.22-6.83,2.01-.62-.05-1.35-.12-1.85.58.21,1.74,2.39.68,3.04,2.11-2.47,0-4.67-.76-6.9-1.27-6.38-1.45-12.58-3.51-18.64-5.99-3.13-1.28-5.66-3.49-8.3-5.47-7.76-5.81-13.8-13.02-18.01-21.84-2.39-5-4.86-9.96-7.21-14.97-1.32-2.81-1.34-5.21.24-8.12,1.91-3.51,3.9-6.93,6.11-10.25,3.53-5.29,5.01-11.3,5.7-17.54.33-2.97.6-5.96.69-8.94.28-9.23-.78-18.34-2.22-27.45-1.82-11.57-5.74-22.51-9.5-33.52-2.4-7.03-5.35-13.85-7.92-20.81-.34-.92-.68-1.85-1.12-3.06,11.73-6.95,23.74-13.19,36.4-18.63-1.15-.93-2-.51-2.82-.35-4.83.99-9.28,2.98-13.59,5.27-6.26,3.33-12.47,6.78-18.7,10.16-.67.36-1.3.87-2.36.86-1.63-2.15-2.07-4.87-2.89-7.38.74-1.39,2.04-1.86,3.19-2.48,7.72-4.15,15.59-7.98,23.76-11.16,5.58-2.17,11.03-4.64,16.37-7.36,1.06-.54,2.1-1.28,3.59-.9.93,2.15,1.82,4.34,1.59,6.9-.18,2.04-.91,3.34-3.02,3.72-.73.13-1.59.19-1.85,1.35,2.44.55,4.88,1.1,7.32,1.64,5.62,1.24,8.83,5.91,9.17,11.25.13,2.03.84,4.1-.98,5.95-.99,1.01-.3,2.23.6,3.24,3.26,3.69,5.01,7.95,5.15,12.94.13,4.62,1.78,8.89,3.81,12.97,2.77,5.56,5.69,11.04,8.56,16.54,3.64,6.98,7.26,13.97,10.96,20.91,3.39,6.36,6.79,12.71,9.49,19.41.38.96.47,2.23,2.15,2.66.8-1.77-.58-3.1-.58-5.14,2.57,2.66,4.51,5.22,5.82,8.18,3.14,7.15,5.06,14.61,5.84,22.41.57,5.67.42,11.28-.07,16.92-.23,2.64-.12,5.29.17,7.95.5,4.59,2.17,5.57,6.27,3.41,1.86,3.63,1.02,8.54-1.95,11.07-1.61,1.37-3.37,2.52-5.32,3.36-1.93.83-3.86,1.68-5.75,2.61-1.43.7-2.75,1.46-4.23.06-.33-.32-1.21-.52-1.55-.31Zm.02,2.69c-.04,1.06-.96.82-1.53,1.04.03-1.23.67-1.31,1.53-1.04Zm-9.88,65.36c1.74,5.6,3.5,11.2,5.27,16.8.2.63.53,1.23.16,2.34-2.07.94-4.41,2-6.76,3.06-1.75-2.07.52-4.38-1.08-6.62-1.13-1.59-.3-4.45-1.54-6.53-.54.45-.4,1.01-.38,1.53.26,7.31.75,14.58,2.84,21.66.89,3,.78,3.1-1.88,4.79-6.06,3.85-11.22,8.65-15.47,14.42-.42.57-.84,1.01-1.82.98-1.18-2.41-.44-4.61,1.05-6.62,2.11-2.86,4.48-5.54,7.27-7.74,2.73-2.16,3.56-4.6,3-8.11-.86-5.39-3.32-9.65-7.67-12.71-6.17-4.35-11.97-9.16-17.69-14.05-5.64-4.83-11.09-9.88-16.66-14.79-1.93-1.7-3.49-3.7-5.13-5.66-.95-1.13-1.13-2.25-.77-3.68,2.02-8.14,2.63-16.35,1.31-24.69-.26-1.66-1.03-3.1-1.62-4.65,1.09-.73,1.74-.52,2.36-.31,8.16,2.81,16.48,5.24,24,9.64,6.79,3.97,13.55,7.97,20.35,11.93,2.24,1.3,4.1,2.99,5.75,4.97,1.42,1.7,2.94,3.32,4.47,4.92.87.91,1.5,1.94,1.81,3.13,1.73,6.73,3.42,13.48,5.14,20.22.27,1.07.47,2.19.93,3.18.73,1.58-.04,2.22-1.56,2.81-2.11-4.31-2.72-9.22-5.39-13.63-1.12,1.4-.59,2.43-.29,3.41Zm-69.46-50.7c-.46-.97-1.36-1.76-1.34-3.18,2.34.18,4.61.31,6.88.53,1.07.1,1.79.77,2.27,1.73,1.15,2.29,2.16,4.6,2.27,7.23.11,2.54.38,5.05.93,7.56.57,2.61-.14,5.31-.6,7.9-1.45,8.12-4.63,15.7-7.91,23.2-1.22,2.79-3.37,5.18-5.07,7.77-.55.83-1.25,1.26-2.23,1.03-1.07-.25-2.22-.04-3.52-.74,1.47-2.4,2.65-4.93,3.7-7.52,3.76-9.29,5.95-19.01,7.74-28.8,1.07-5.84-.61-11.4-3.12-16.7Zm2.85-5.28c-4.69-1.37-9.64-1.28-14.5-1.64-3.2-.24-6.39-.58-9.59-.89-.44-.04-.99,0-1.28-.25-3.4-2.93-7.59-2.52-11.61-2.84-.43-.03-.86-.13-1.35-.2.51-5.95-.92-11.63-1.86-18.13,1.99,2.81,2.09,5.73,3.83,7.78,1.2.49,2.2-.13,3.24-.44,6.68-1.99,13.36-4.01,20.04-6,.84-.25,1.73-.35,2.61-.49,4.05-.65,4.77-.38,6.82,3.04,4.73,7.88,10.87,14.51,17.95,20.32,1.88,1.54,3.64,3.21,5.46,4.82-1.74.35-3.08-.47-4.54-.92-.42-.13-.82-.35-1.25-.45-4.71-1.05-9.34-2.36-13.97-3.71Zm-23.44.3c2.52.05,4.63.14,6.79.63,1.74,9.87,2.65,19.58.08,29.37-1.07,4.06-1.64,8.25-2.31,12.4-.78,4.78-3.17,8.79-5.81,12.8-.33-2.31-.12-4.56.18-6.82,1.35-10.09,3.38-20.09,3.95-30.3.34-6.14.46-12.18-2.88-18.08Zm-41.29-221.9c-.83-.95-.92-2.01-.65-3.11.39-1.58.89-3.14,1.54-5.39,5.6,26.26,9.51,51.89,7.57,78.1-.88.16-.94-.47-1.03-.93-1.72-8.68-3.51-17.35-5.08-26.06-.63-3.46-.03-7.15-1.12-10.5-1.08-3.3-1.2-6.2.69-9.22.75-1.19.64-2.79.65-4.23.04-3.32.04-6.65.08-9.97.04-3.19-.48-6.2-2.66-8.68Zm-9.58-20.63c0-.83.16-1.76-1.12-2.87-.1,5.5-.19,10.55-.28,15.66-.47-.13-.79-.13-.83-.24-2.96-7.57-7.39-14.35-11.51-21.28-1.89-3.19-2.05-6.41-1.66-10.27,3.38.56,6.59,1.29,9.87,1.37.77.02.97.81,1.38,1.31,1.78,2.18,2.62,4.78,3.31,7.67,1.5-3.17.36-5.84-.87-8.42,1.43-1.69,3.11-1.21,4.73-1.27,1.19,2.4,1.28,5.01,2.13,7.38,2.27,6.35,2.73,12.53-.05,18.95-1.21,2.8-1.76,5.87-3.92,8.33-1.91-.91-1.48-2.22-1.35-3.37.47-4.31.17-8.63.19-12.95Zm-1.94-33.13c-1.79,1.19-3.37,2.48-4.65,4.12-1.36,1.75-1.54,3.62-.38,5.6-1.25.65-2.01.38-2.76.26q-5.89-.95-6.16-6.94c-.05-1.2-.49-2.39.02-4.05,4.52.83,9.15,1.39,13.92,1.01Zm-10.3-10.62c-.21-1.22.52-1.85,1.5-2.23,5.71-2.24,5.54-2.93,7.14,2.99.2.74.54,1.45.2,2.35-2.38.57-4.71-.29-7.06-.64-1.32-.19-1.59-1.37-1.78-2.48Zm.46,22.38c-1.19.29-1.86.39-2.39-.34.71-.35,1.24.08,2.39.34Zm18.57-48.84c-1.67-1.11-2.46-2.88-3.41-4.54,1.46,1.24,2.86,2.53,3.59,4.37,1.06.6,1.6,1.57,1.93,2.69,2.55,2.47,4.53,5.38,6.75,8.42-2.75,3.67-6.47,5.61-10.88,7.4-1.97-7.72-3.3-15.24-5.03-23.26,3.42,2.56,5.25,5.91,8.52,7.64-.41-.95-1.32-1.62-1.47-2.7Zm-1.21,22.99c1.85-.52,3.31-.56,4.89.4.51,2.51-.94,3.89-3.17,5.23-1.18-1.94-1.09-3.83-1.73-5.63Zm7.92,9.91c.92,2.51.61,5.1,1.2,7.54.14.56-.1,1.1-.6,1.45-1.23.88-2.25,2.09-4.05,2.49-.95-3.04-1.54-6.02-1.79-9.24,1.71-1.23,3.33-1.83,5.24-2.24Zm1.86,14.01c-1.15,3.3-2.12,6.11-3.1,8.93-.99-2.15-1.59-4.22-1.36-6.68,1.44-.72,2.7-1.36,4.46-2.25Zm-.97-31.25c3.73-4.85,7.96-9.1,9.66-15.07,1.63.18,2.9,1.36,4.38,1.66.94,4.4.09,8.05-2.86,11.22-1.88,2.01-3.57,4.19-5.71,6.73-1.14-2.7-3.43-3.47-5.46-4.54Zm5.97,146.35c.69-9.97,1.1-19.92.58-29.91-.03-.55,0-1.1,0-2.32,1.16,1.8,1.49,3.19,1.92,4.55,3.43,10.78,5.55,21.9,8.61,32.78,1.11,3.95,3,7.74,3.61,11.72.6,3.98-.33,8.16-.11,12.26.23,4.32.53,8.63,1.76,12.81,1.65,5.62,3.23,11.24,4.51,16.97,1.72,7.69,5.33,14.78,8.01,22.17,2.79,7.7,5.87,15.31,8.98,22.89.74,1.79.4,2.86-.94,4.04-1.8,1.56-3.48,3.26-5.75,5.42,3.68-1.04,5.65-3.4,8.3-4.99,2.49,5.34,4.91,10.53,7.47,16.02-9.68,2.89-19.06,5.69-28.56,8.52-2.74-5.94-4.92-11.77-5.03-18.24-.16-9.19-.55-18.39-1.65-27.52-.71-5.92-1.57-11.83-2.55-17.73-.61-3.66-.75-7.46-1.19-11.18-.87-7.36-2.27-14.63-3.67-21.9-1.61-8.37-3.3-16.72-4.82-25.1-.68-3.76.28-7.52.54-11.26Zm86.02-39.75c-1.29-.42-2.62-.86-4.24-1.38,1.96-5.32-.77-10.03-1.66-14.95-.33-1.83-.35-3.42.23-5.17,1.37-4.14,3.39-7.94,5.85-11.51,3.4-4.92,6.81-9.84,10.23-14.74.35-.5.52-1.28,1.39-1.2,1.01,8.92-6.85,41.7-11.81,48.95Zm7.45,6.56c-2.09-2.1-3.81-3.84-5.63-5.67,2.47-3.72,4.16-7.9,6.22-11.99.42,5.79-.36,11.51-.59,17.67Zm-14.71-29.51c-1.56-3.52-2.83-6.36-4.29-9.65,3.64-1.09,6.9-2.58,9.96-4.69-2.7,4.27-4.26,8.86-5.67,14.34Zm-3.69-1.56c-.21.61-.61.8-1.02.95-11.74,4.15-22.81,9.68-33.45,16.14-3.96,2.4-7.85,4.99-12.68,6.92-1.59-3.78-2.69-7.46-3.92-11.42,2.52-1.98,4.91-4.11,7.55-5.88,5.44-3.63,11.1-6.89,17.23-9.26,5.16-1.99,10.29-4.08,15.25-6.56,3.76-1.88,6.64-.89,8.51,2.8,1.05,2.07,2.13,4.12,2.52,6.31Zm-33.13,150.98c-1.21,1.14-.92,2.77-1.11,4.23-.08.65.12,1.32.12,1.98,0,.85-.32,1.52-1.22,1.74-.84.2-1.56-.05-2.05-.75-.31-.45-.52-.97-.72-1.49-4.24-10.94-9.27-21.6-12.39-32.94-2.11-7.67-5.25-15.08-6.25-23.05-.53-4.24-1.24-8.48-.79-12.88,1.01.48,1.27,1.37,1.76,2.07.42.59.56,1.53,1.9,1.28-.08-1.8-1.07-3.29-1.89-4.75-1.14-2.04-1.51-4.14-1.24-6.39.58-4.86,1.64-9.59,4.14-13.79.54-.18.73.12.86.42,6.71,14.59,13.44,29.18,18.63,44.41,3.79,11.11,5.36,22.59,5.13,34.33-.05,2.46-.66,4.83-.81,7.26-.03.45-.31.82-.84.98-1.62-.13-1.41-2.49-3.24-2.66Zm2.57,5.8c-.12,3.31-1.75,6.07-3.27,9.14-1.2-.69-1.27-1.6-1.59-2.68,4.09-.31,2.94-4.41,4.85-6.47Zm-21.28-146.7c-2.85-7.91-5.57-15.54-7.31-23.52,2.49,2.1,4.87,4.14,5.94,7.34,1.15,3.45,2.59,6.8,3.82,10.23,1.28,3.56,1.23,3.58-2.45,5.95Zm-3.6,48.54c.95,2.06,1.19,3.77.16,5.91-1.87,3.88-3.15,8-4.4,12.73-3.09-7.84-12.26-50.81-11.99-55.59.73.46.85,1.24,1.1,1.95,4.23,12.01,9.82,23.45,15.12,35Zm57.31,161.03c1.87.79,2.59,1.9,3.44,2.84-1.26-.44-2.3-1.14-3.44-2.84Zm29.05,4.04c1.25-1.54,3.37-1.57,4.8-2.82,1.57-1.38,3.25-2.63,4.79-4.06,1.43-1.33,3.03-2.49,4.55-3.72-2.69,3.7-6.12,6.46-9.49,9.3-.41.35-.91.66-1.43.81-1.02.3-2.08.49-3.23.5Zm39.95-57.47c.98,1.54.81,2.38.68,3.76-1.04-1.27-.75-2.18-.68-3.76Zm2.42,13.16c1,1.28,1.11,2.37.62,3.88-1.57-1.15-1.24-2.32-.62-3.88Zm1.82-12.35c.07-.13.39-.23.54-.19.13.04.19.31.28.48-.16.14-.32.4-.47.39-.4-.03-.53-.35-.36-.68Zm12.52-195.37c4.85-2.04,9.84-3.3,15.04-3.95,1.78-.22,2.65.74,3.44,2.03,2.87,4.67,5.02,9.72,5.94,15.07,1.39,8.07,3.03,16.1,3.97,24.25.17,1.48-.11,2.7-1.35,3.49-4.42,2.8-5.5,6.63-3.67,11.42.12.31.17.64.24.97.19.96.39,1.36-.11,2.68-.61,1.6-.96,2.24-5.01,4.04-1.43.63-1.67,1.52-2.77,1.14-3.02-1.06-6.14-.72-9.23-.77-1.35-.02-2.66.04-3.73,1.06-.89.85-2.02.83-3.14.74-6.01-.45-11.97.11-17.86,1.22-3.89.74-7.75,1.77-11.53,2.96-5.18,1.63-10.5,2.73-15.68,4.35-1.35.42-2.65.11-3.95.09-3.75-.05-7.42-.68-10.92-1.53-.12-.55-.28-.88-.2-.97,2.56-2.78,3.08-6.84,5.89-9.47.72-.67.62-1.53.48-2.47-.36-2.44-.99-4.73-2.37-6.82-.6-.91-.98-1.99-1.33-3.03-.61-1.83-.32-3.44,1.2-4.82,2.37-2.17,4.71-4.36,7.16-6.45,12.24-10.47,26.13-18.65,38.99-28.26,3.36-2.51,6.52-5.28,10.5-6.95Zm-19.5-104.65c.69-2.92,1.55-5.81,2.93-8.46,5.39-10.35,8.03-21.53,10.19-32.88,3.15-16.51,4.09-33.19,4-49.95,0-1.22,0-2.43,0-3.65,1.82,4.25,1.81,8.83,2.43,13.31,1.53,11.2,2.5,22.46,3.23,33.73.8,12.41.37,24.82-.03,37.22-.32,9.86-.66,19.71-2.43,29.45-2.44,13.44-5.4,26.71-11.86,38.93-.36.68-.73,1.37-1.14,2.02-.17.26-.47.43-.77.69-6.09-5.9-13.52-9.75-20.67-13.66-.53-1.16.02-1.93.35-2.72,5.91-14.26,10.22-29.03,13.76-44.03Zm-11.22-1.28c.11,14.07-3.31,40.97-5.93,46.53-1.14.08-2.12-.43-3.09-.93,0-1.41,8.56-44.68,9.01-45.6Zm-19.56,78.67c.22-1.52.75-3.01,1.3-4.45,3.04-7.87,5.44-15.94,7.48-24.12.1-.42.35-.8.71-1.59,5.6,2.9,12.13,3.48,16.96,7.93.67.62,1.49.92,2.32,1.25,2.83,1.13,4.44,3.59,6.16,5.88.75.99.13,1.89-.51,2.7-2.06,2.62-4.32,5.06-6.96,7.12-.77.6-1.78.93-2.55,2.39,5.42-1.5,8.06-5.7,11.6-9.05,1.15.9,1.57,2.18,2.1,3.32,4.3,9.2,6.85,18.95,9.03,28.82.42,1.92-.02,3.63-1.4,5.23-1.9,2.21-4.05,4.11-6.39,5.8-5.85,4.21-11.75,8.35-17.63,12.51-.34.24-.65.63-1.18.38.92-2.71,4.86-3.53,4.62-7.68-5.18,5.08-8.99,10.69-14.1,15.1-5.03,4.35-10.49,8.02-15.75,11.8-1.73-1.02-1-2.02-.6-3.05,3.17-8.17,5.44-16.63,7.82-25.05.41-1.47.52-3.02.59-4.59-1.4,2.61-2.27,5.4-3.08,8.21-1.59,5.54-3.13,11.09-4.8,16.61-.54,1.79-1.27,3.58-2.23,5.18-.99,1.64-2.06,3.04-1.31,5.16.34.96-.58,1.89-1.34,2.53-1.71,1.42-1.78,2.99-1.13,5.04.64,2.02,1.22,4.02,2.28,5.86.86,1.51,1.14,2.91-.6,4.03-.18.12-.47.26-.49.43-.77,4.87-4.57,8.79-4.29,14.09.82,1.22,2.58.82,3.88,1.86-.7,2.9-1.46,5.96,1.17,8.97-3.47.03-4.48,1.85-4,4.65-1.28.23-1.06-.77-1.22-1.24-.92-2.72-1.33-5.6-2.43-8.28-.43-1.06-.09-2.2.02-3.3,1.34-13.92,3.97-27.63,6.6-41.34,2.5-13.06,4.82-26.16,6.64-39.34.91-6.59,1.76-13.19,2.73-19.76Zm-8.67-12.38c-.53,7.74-1.02,15.29-3.21,22.5-2.73,9.02-8,16.56-15.33,22.46-6.42,5.17-13.97,8.44-21.74,12.3-3.68-11.38-8.6-22.16-6.1-34.37,7.45,5.57,15.13,3.14,22.7.15,4.36-1.72,8.14-4.5,11.43-7.87,4.04-4.14,7.61-8.65,10.58-13.62.32-.53.38-1.3,1.66-1.56Zm-36.15-28.59c9.06.58,17.4,1.99,25.97,3.35.32,12.06-1.73,22.96-10.44,31.7-.86.86-1.68,1.81-2.86,2.22-3.59,1.26-8.32,1.67-10.23-3.94-1.36-3.98-2.73-7.92-3.37-12.09-.27-1.79.29-3.51.44-5.27.45-5.16.77-10.32.48-15.97Zm22.89-20.48c1.68,3.46,3.39,16.3,2.73,21.2-1.53-.31-2.81-.57-4.04-.83-.81-2.98.05-15.95,1.32-20.37Zm3.75-133.09c1.27,2.69,2.95,17.08,2.6,22.24h-8.56c1.99-7.44,3.95-14.73,5.96-22.24Zm-11.02,35.79c1.35-3.16,2.58-6.37,3.49-9.69.41-1.51,1.22-2.23,2.83-2.16,2.43.1,4.87-.28,7.62.3.92,5.91,1.35,11.91,1.59,17.92-6.33,2.26-12.66,2.4-18.91,3.43-.37-2,.52-2.72,2.24-2.96,2.3-.33,4.58-.79,6.87-1.24,1.05-.21,2.13-.45,2.99-1.82-3.78.4-7.06,2.05-10.93,1.63.8-1.96,1.49-3.69,2.22-5.41Zm-1.32-14.38c.35.66.27,1.16-.49,1.44-.32-.65-.37-1.19.49-1.44Zm-1.96,4.26c.19-.41.63-.6,1.7-.37-1.1,5.46-2.18,10.83-3.27,16.2-2.01.27-3.74.42-6.03.17,3.01-5.31,5.18-10.71,7.6-16Zm-2.52,17.96c-.49,2.39-.62,2.43-6.82,2.2.69-2.64,1.29-2.83,6.82-2.2Zm-63.79-32.16c.23-.03.46-.05.69-.08,1.86,6.34,3.72,12.67,5.76,19.6-3.16-.73-5.61-1.3-8.37-1.94.42-5.96.78-11.81,1.92-17.58Zm-5.14,42.85c1.74-2.76,3.45-.19,5.18.14-.06-1.86-1.81-2.09-2.36-3.23-.53-1.13,1.15-1.51.92-2.58-1.45-.36-2.37,1.31-3.96.8.94-5.7,2.08-12.06,3.04-17.83,3.23.49,4.71.92,6.96,1.67-.9.84-.54.41-1.34.92,1.26,1.14,3,1.08,4.8,1.77,3.49,10.55,7.55,21.1,14.1,30.5-.88-3.41-1.92-6.75-1.97-10.41,4.63,7.16,9.9,13.71,17.12,18.81.87-1.55.64-3.13.54-4.54-.26-3.67.21-7.31.21-10.97,0-.65-.02-1.46.33-1.93,2.63-3.54,4.67-7.51,8.07-11.39-.24,2.16-.71,3.41-1.8,4.55-1.54,1.6-3.01,3.29-1.5,5.79.42.7-.19,1.49-.36,2.24-.48,2.14-.99,4.76-.49,6.99,1.85.57,2,.68,3.36.73,1.62.06,3.29-.02,4.59-.92-1.04-1.2-4.2-.18-5.3-1.77,1.5-5.56,7.39-4.85,11.57-7.85q-1.43,3.22-6.92,6.59c-.3,1.03.16,1.86.97,2.86,6.31-4.07,13.19-7.32,18.15-13.23.94-1.12,1.86-1.76,3.37-1.58.98.12,1.99-.03,2.99-.07,1.17-.04,2.41.25,3.19-1.12.21-.38,1.01-.25,1.71.15-1.48,3.66-4.6,6.22-6.38,10.23,4.49-1.87,8.05-4.21,11.04-7.59-1.44,6.74-4.08,12.99-7.07,19.15,3.85-4.35,5.93-9.63,8.14-15.64.88,4.6,1.27,8.31-.8,12.07-3,5.45-4.79,11.45-6.86,17.28-3.21,9.02-8.5,16.74-13.63,24.65-5.12,7.88-11.93,13.95-19.23,19.61-.35.27-.71.54-1.08.77-.18.11-.41.14-.8.26-1.32-.77-2.72-1.66-4.18-2.43-3.51-1.85-6.6-1.37-9.3,1.5-1.06,1.13-2.04,2.34-2.94,3.61-.89,1.25-1.61,2.62-2.38,3.89-6.31-.56-9.25,1.38-11.12,7.41-.55,1.78-1.22,3.51-2.12,5.46,2.84.68,4.16,2.34,4.33,5.16.09,1.48.94,2.94,1.58,4.34.49,1.08,1.11,2.17,2.61,1.96.09-.34.25-.65.18-.72-2.09-1.93-2.59-4.5-3.08-7.14-.38-2.06-.62-4.13-1.25-6.17-1.17-3.77,1.91-8.02,5.54-8.15,1.9-.07,3.19.71,4.09,2.28,1.12,1.95,1.77,4.08,2.06,6.28.45,3.44,1.69,6.65,2.73,9.92.43,1.34,1.33,2.22,3.04,2.97-.33-3.44-.28-6.62-1.01-9.61-.89-3.62-.58-7.01.42-10.47.15-.52.35-1.06-.16-1.9-2.26,2.06-1.76,5.01-2.77,8.05-1.29-2.98-2.38-5.4-2.69-8.11-.02-.22-.01-.44,0-.66.2-2,5.56-8.45,7.47-9,2.61-.75,7.19,2.41,7.65,5.48.73,4.82,1.24,9.68,1.95,14.5.88,6.03,1.16,12.12,2.03,18.16.87,6.03-.59,11.92-2.07,17.72-.47,1.83-.91,3.6-1.07,5.49-.42,4.97-.89,9.94-1.56,14.88-1.39,10.23-.31,20.08,3.88,29.58.79,1.78,1.64,3.64,1.39,6.07-10.55,4.28-21.46,8.12-30.79,15.66-.95-2.9-1.79-5.39-2.6-7.9-1.49-4.59-3.45-8.88-7.24-12.1-1.4-1.19-2.25-2.81-2.29-4.66-.1-4.23-1.58-8.04-3.57-11.63-2.98-5.36-4.39-11.09-4.6-17.17-.17-4.88.02-9.73.59-14.6.51-4.39-.29-8.76-1.79-13.07.51,4.07-2.62,5.8-4.98,8.51-1.29-3.11-1.08-6.21-2.35-8.69.19-1.23,1.09-1.6,1.72-2.18,2.28-2.11,4.61-4.21,6.16-6.94,1.31-2.31,3.23-3.56,5.89-4.07,1.05.9,2.03,1.96,3.21,2.71,1.59,1.02,2.91.21,2.8-1.65-.05-.99-.33-1.96-.52-2.94-.19-.97-.91-1.04-1.65-.7.4-1.86.73-3.48,1.11-5.1.39-1.63,2.37-2.24,2.77-4.06-3.23-.24-4.27,2-5.19,4.22-3.12.55-5.84-.35-8.47-1.57-10.27-4.75-20.26-10.03-29.94-15.91-.96-.58-1.71-1.15-2.01-2.42-4.22-17.94-8.51-35.86-12.77-53.79,0,0-.5-2.08-1.21-4.36-.39-1.24-1.5-7.91-1.5-7.91,0,0,.57,1.45,1,2.42,1.36,3.09,5.26,9.62,5.26,9.62,1.71,2.46,3.38,4.95,5.18,7.34,4.11,5.43,8.72,10.36,14.59,13.94,3.09,1.89,6.34,3.51,9.93,4.52-10.88-5.64-18.8-13.8-25.37-24.27-.4-.63-.88-1.35-1.58-2.54-.39-.66-1.57-2.89-2.06-3.69-.53-.88-1.85-3.66-1.85-3.66-.99-1.95-1.31-2.65-2-4.49,0,0-1.01-2.45-1.68-4.37-.72-2.09-1.26-3.46-1.75-5.39-.65-2.53-1.78-4.97-1.89-8.47,1.03,1.97,2.22,2.02,3.56,1.91,1.2-.1,2.44,0,3.64.19.95.15,2.02.32,2.25,1.77-2.11,2.04-5,.83-7.55,1.53.33,3.02,1.79,5.33,4.14,6.96,7.57,5.24,17.25,6.85,25.62,1.68,2.08-1.29,3.97-2.81,5-5.19,1.14-.44,1.79,1.1,2.88.93.44-1.3-.9-1.85-.84-3,1.13-1.35,2.51-.93,3.77-.13,1.3.83,2.5,1.84,3.68,2.84.93.79,1.83,1.61,3.28,2.22.07-1.3.85-2.03,2.07-2.2-.21-1.75-1.1-3.05-1.77-4.41Zm3.36,102.24c1.52-.33,2.64-.13,3.91.47-.03,1.32-.53,2.43-1.92,2.42-1.85-.02-1.44-1.7-1.99-2.89Zm-40.28-99.22c1.55-.42,2.6,1.03,3.76,1.62,2.45,1.24,4.39,1.28,6.79-.12,1.76-1.03,3.84-1.52,5.63-2.67,1.02-.65,2.43-1,3.7-.63.57,1.16-.28,1.8-.65,2.53-.41.78-1.03,1.38-.57,2.4.4.89.11,1.74-.73,2.32-1.05.73-1.85.19-2.63-.51-.23-.2-.55-.3-.8-.44-.82.62.07,1.55-.73,2.37-2.01-1.81-4.28-1-6.51-.27-1.62.53-3.05-.18-4.53-.52-2.49-.56-4.84-1.54-6.96-2.99-.98-.67-2.16-1.24-1.89-3.13,2.04.66,4.06.58,6.11.03Zm-.91-4.14c-.03-.38.19-.61.54-.59.53.02.64.45.68.89-.03.34-.16.64-.53.6-.51-.04-.66-.44-.69-.9Zm-11.08-15.91c13.51-15.82,25.24-32.87,34.87-51.33,1.74-3.33,3.43-6.66,5.85-9.76.38,17.07,1.98,34.02,3.31,51.37-9.54-1.96-18.84-3.52-28.36-2.51,9.42,1.17,18.88,2.03,28.36,4.48,1.12,3.79.56,7.81,1.5,11.68-2.39,1.01-4.46.54-6.52.32-12.25-1.3-24.52-2.18-36.85-1.54-.31.02-.62.06-.93.16,14.7.55,29.38,1.38,44.01,2.87.48,2.01.86,3.59.33,5.48-15.77-.34-31.38-1.79-46.81-3.37-1.75-3.27-.76-5.51,1.24-7.85Zm14.01,134.27c-3.73.04-7.13.08-10.94-.35-2.01-21.32-4.51-42.48-8.59-63.44,6.37,21.24,13.28,42.28,19.53,63.79Zm-47.87-17.19c.34-.28.66-.59,1.01-.87.25-.21.52-.39.78-.59,2.92,5.47,8.82,49.18,7.66,57.21-2.97-.01-4.6-1.61-5.89-3.86-4.74-8.26-8.11-16.98-9.28-26.49-.37-2.97-1.07-5.92-1.15-8.9-.17-6.46,1.71-12.2,6.87-16.51Zm8.88,58.41c-4.65.19-6.22-.89-6.86-4.79,1.59,2.6,4.16,3.78,6.86,4.79Zm-55.13-168.86c1.1-6.21,2.47-12.37,5.31-18.1,2.14-4.32,5.02-5.04,8.64-1.83,1.4,1.24,2.69,2.66,3.81,4.15,2.59,3.46,5.08,6.99,7.53,10.54,1.38,2,2.58,4.1,4.92,5.23,1.44.7,1.76,2.15,1.99,3.63.87,5.57,1.72,11.15,2.71,16.71,1.68,9.48,3.46,18.94,5.19,28.41.08.42.24.85-.28,1.65-1.82-.51-3.63-.33-5.51-.04-4.18.64-7.72-.62-10.81-3.73-5.54-5.57-11.3-10.93-17.04-16.3-1.92-1.79-3.33-3.65-3.68-6.4-.43-3.39-1.17-6.89-2.4-9.96-1.93-4.79-1.18-9.32-.36-13.95Zm-7.35,35.3c1.27,1.76,1.44,3.84,1.88,5.81,2.52,11.24,4.52,22.6,7.66,33.7,4.65,16.43,9.77,32.69,17.38,48.06.24.49.41,1.02.68,1.72-2.68,1.55-5.64,1.78-8.81,2.74-9.65-21.67-14.41-44.16-17.32-67.07-1.05-8.23-2.59-16.53-1.47-24.95Zm-24.74,49.29c-1.27-23.61-.95-47.22.17-70.82.76-15.95,2.32-31.83,4.3-47.68,1.41-11.33,2.89-22.64,4.97-33.87.1-.52.05-1.11.92-1.64,0,.98.03,1.8,0,2.61-.72,15.99.41,31.91,1.64,47.83.43,5.63,1.28,11.22,1.84,16.84.22,2.2.17,4.43.26,6.64.53,12.87,2.14,25.61,3.91,38.36,2.79,20.13,7.32,39.88,12.67,59.46,2.11,7.7,5.07,15.13,7.59,22.7.34,1.03.67,2.06,1.13,3.47-11.05,3.19-21.79,5.84-32.31,9.57-1.44-3.2-1.66-6.43-2.29-9.55-2.94-14.49-4.01-29.19-4.8-43.92Zm-25.34,113.9c.32-10.22,1.08-20.38,4.21-30.21.87-2.75,1.76-5.49,3.05-8.08.1-.2.16-.42.29-.6,1.04-1.36-.11-3.37,1.46-4.6,3.9-3.07,6.88-7.28,11.58-9.38,2.83-1.27,5.66-2.55,8.62-3.51,12.66-4.11,25.5-7.55,38.4-10.82,7.63-1.93,15.15-4.27,22.85-5.91,1.28-.27,2.58-.49,3.67-.69.68.63.71,1.18.74,1.74.77,13.6,4.2,26.66,8.19,39.6,1.07,3.47,3.44,5.29,7.01,5.68,1.31.14,2.66.17,3.78.93.6.93.56,1.95.63,2.94.45,7.08.89,14.17,1.33,21.25.03.55.09,1.13-.04,1.66-1.29,5.2-3.55,9.93-6.55,14.43-4.68-1.59-9.13-3.11-13.58-4.63-.08.22-.16.44-.24.67,4.39,1.65,8.78,3.31,13.32,5.02-1.52,4.5-4.99,7.53-6.95,11.46.09.09.19.17.28.26,1.52-1.01,2.4-2.59,3.42-4.02,3.35-4.69,6.41-9.55,8.65-14.89.34-.81.8-1.56,1.23-2.41.91,1.8,1.22,5.99.57,8.54-.13.52-.27.93-.2,1.52,1.36,12.21.12,24.32-1.54,36.39-.66,4.83-1.18,9.68-2.3,14.44-1.17,4.98-2.87,9.78-4.78,14.52-1.04,2.59-2.83,4.72-4.49,6.8.2.43.41.49.62.28,2.97-3,6.42-5.43,9.68-8.08,2.96-2.4,5.18-5.47,7.01-8.8,3.51-6.42,7.04-12.84,9.47-19.77.14-.4.27-.86,1.15-.97-1.36,11.74-3.89,23.12-8.04,34.44,1.72-1.39,1.7-1.4,2.21-2.75,5.99-15.91,11.02-32.07,13.21-49,.26-1.98.52-3.96.78-5.94l.63-5.64c.41-4.19.86-8.38,1.28-12.58.82-8.17,1.27-16.36,1.3-24.58,0-.52-.16-1.09.31-1.54.77-.15.89.51,1.11.95,1.87,3.78,3.76,7.55,6.2,11,1.2,1.69.94,3.06-.27,4.47-.65.76-1.27,1.56-2.03,2.18-1.93,1.56-2.43,3.49-2.16,5.91.27,2.45.66,4.94,1.69,7.08,1.87,3.88,1.35,7.8.87,11.71-1.04,8.58-2.4,17.13-3.46,25.71-.76,6.18-.48,12.4.08,18.62,1.11-15.79,3.03-31.48,5.16-47.54,2.38,3.96,3.08,7.89,2.27,12.06-1.95,10.03-1.36,20.11-.74,30.19.75,12.17,1.66,24.33,2.01,36.52.23,7.98.1,15.97.12,23.95,0,1.05.22,2.24-1.39,2.86-1.64-4.2-1.55-8.79-3.09-13.17-1.16,1.09-.7,1.97-.53,2.76.7,3.25,1.35,6.52,2.25,9.72.6,2.12.04,3.59-1.54,4.99-2.83,2.5-5.73,4.9-8.77,7.14-.56.41-1.46.57-1.48,1.77,4.96-1.6,8.53-5.1,12.48-8.48,1.32,3.31,1.72,6.42,1.64,9.63-.15,5.99-.17,11.98-.44,17.96-.36,8.01.91,15.9,1.47,23.84.21,2.99.41,5.96,1.2,8.88.34,1.25.25,2.62.34,3.81-2.21,2.33-4.53,2.69-6.89.8-2.53-2.03-5.25-1.84-7.83-.63-3.61,1.71-7.12,1.58-10.94.84-11.43-2.2-22.95-3.86-34.51-5.3-5.4-.67-10.53-2.64-15.83-3.81-.92-.2-1.78-.55-1.78-1.65,0-2.73-.22-5.48.56-8.46,2.79,2.35,4.91,5.06,8.23,6.52-1.23-1.48-2.31-3.11-3.7-4.4-4.87-4.5-7.48-10.38-10.19-16.2-.75-1.61-1.48-3.23-2.16-4.86-2.63-6.28-6-12.09-10.32-17.38-10.06-12.31-16.79-26.35-20.68-41.7-1.77-6.99-1.99-14.25-1.94-21.48.1-12.56,1.42-25.01,3.13-37.44.83-6.04,1.82-12.07,1.84-18.19,0-1.28.26-2.63-.69-4.12-1.89,2.22-.61,5.04-1.89,7.26-1.64.49-3.23-.23-4.82-.49-9.42-1.51-18.87-2.72-28.35-3.76-3.18-.35-4.78-2.32-5.75-5.41-1.84-5.92-.89-11.87-.71-17.83Zm68.91,169.34c-1.09-1.15-.95-1.92-.71-2.7.18.69.37,1.39.71,2.7Zm-70.79-90.86c-3.06-3.83-5.46-8.08-7.84-12.33-2.75-4.92-5.61-9.78-7.65-15.1-1.79-4.66-5.03-8.59-7.57-12.87-2.55-4.29-4.95-8.66-6.54-13.41-.31-.94-.61-1.91-.75-2.88-.52-3.73-.07-4.53,3.19-6.42,2.79-1.62,5.72-2.94,8.77-3.95,4.73-1.56,9.49-3.06,14.23-4.57.72-.23,1.44-.6,2.47-.16.07,4.82,1.71,9.54,2.13,14.82-5.58-.51-10.39-2.8-15.35-4.66.92,2.72,3.09,3.6,5.36,4.49,6.78,2.65,13.92,3.55,21.05,4.43,8.13,1.01,16.19,2.42,24.27,3.73,5.19.84,5.06.91,4.68,6.3-.44,6.2-1.87,12.26-2.32,18.45-.34,4.64-.84,9.26-1.1,13.9-.1,1.8-.53,3.07-2.2,4.1-2.53,1.55-2.53,2.2-.76,4.81-6.77,1.25-13.23,2.75-19.61,4.57-1.17.33-2.33.79-3.53.94-4.35.55-8.08-.58-10.93-4.16Zm46.71,192.94c-5.3-2.29-10.48-4.79-15.29-8.02-2.36-1.58-3.65-3.6-4.1-6.48-.72-4.59-1.85-9.12-2.79-13.67-.13-.65-.51-1.49-.25-1.93,1.41-2.41-.26-4.09-1.09-6.07-2-4.79-3.64-9.73-4.81-14.8-.38-1.64.18-2.97,1.29-4.25,1.77-2.03,3.95-3.85,3.84-7.02-.03-.72.86-1.51,1.4-2.2,6.88-8.88,15.09-16.21,25.11-21.42.98-.51,1.91-1.1,2.84-1.69.14-.09.13-.39.23-.72-1.14-.75-2.11.05-3.04.45-8.37,3.6-15.72,8.64-21.71,15.56-.72.84-1.46,1.68-2.31,2.38-1.61,1.32-3.37,1.47-5.27.51-1.89-.96-2.79-2.38-2.64-4.54.12-1.69.63-3.26,1.1-4.85,1.4-4.78,3.17-9.45,3.93-14.42.37-2.4-.12-4.53-.79-6.81-2.56-8.7-5.42-17.35-5.7-26.56-.09-3.06.43-5.85,1.92-8.62,2.53-4.68,1.94-8.13-1.62-12.18-.88-1-1.72-2.1-2.8-2.84-3.99-2.74-6.28-6.81-8.73-10.75-2.42-3.88-.31-8.41,4.27-9.22,2.62-.46,5.26-.76,7.9-1.1,3.29-.43,6.39-1.7,10.15-2.56-2.23,2.57-5.59,3.11-7.12,6.15,3.04.75,4.58-1.36,6.51-2.35,2.03-1.05,3.76-2.68,5.88-3.26,1.23.73.68,2.06,1.51,2.76,3.3.66,3.38.65,3.97,4.29,1.15,7.15,3.38,13.98,6.29,20.72-1.11.94-2.47-.57-3.62.65-.67,1.78,1.2,2.67,1.94,3.88-.09,1.05-.91,1.34-1.45,1.87-.48.47-.98.93-.62,1.93,2.93.88,4.61-1.92,7.12-2.64,1.18.64,1.63,1.95,2.3,3.05,2.78,4.57,5.93,8.92,9.97,12.4,4.27,3.67,6.54,8.26,7.88,13.53.51,2.02.84,4.09,1.77,5.99-1.79-.31-3.77-.08-5.38-.48-3.28-.81-6.68-2.23-8.92-4.89-2.25-2.67-4.86-4.84-7.53-6.99-6.22-5.01-12.8-9.55-18.81-14.83-.58-.51-1.19-1.02-2.21-.69-.7,1.57.59,2.42,1.48,3.24,3.01,2.79,6.17,5.41,9.63,7.63,1.49.95,2.94,1.94,4.67,3.56-2.53-.34-3.67-2.39-5.64-2.55-.66,1.06.2,1.49.74,1.92,9.68,7.71,19.99,14.34,31.69,18.62,1.2.44,2.61.63,3.33,1.83-.11,1.36-1.65,1.18-2,2.17-.52.95.72,1.57.48,2.54-1.63,1.45-4.34.78-6.1,3.11,3.92,1.47,7.25-.75,11.05-.98.69,3.13.37,6.12-.09,9.35-6.47-.93-12.51-.19-18.09,3.19.58,1.37,1.4.93,2.13.87,3.52-.31,6.89-1.75,10.5-1.45.88.07,1.81-.06,2.65.17,5.05,1.4,10.3,1.46,15.42,2.39,5.44.99,10.74,2.72,16.27,3.26,7.18.7,14.24,2.13,21.31,3.49.87.17,1.77.23,2.53,1.07.16,1.29.32,2.71.53,4.12.22,1.48-1.05,2.69-.78,4.06.6,1.01,1.25-.13,1.88.22-.03.31.01.66-.1.94-2.97,7.55-4.91,15.38-6.7,23.27-1.21,5.31-.57,10.59-.36,15.88.33,8.35,2.21,16.42,5.06,24.27.88,2.42,1.96,4.82,3.73,6.62,2.39,2.44,4.91,4.82,8.03,6.39.29.15.68.36.94.27,3.11-1.05,5.25,1.2,7.66,2.31,1.91.88,3.8,1.78,5.74,2.6,1.63.69,2.98.46,4.36-.51,6.54-4.6,12.83-9.51,18.53-15.13,2.36-2.33,3.33-5.08,2.38-8.48-1.97-7.03-3.07-14.27-4.91-21.34-2.13-8.15-1.86-16.47-.29-24.73.48-2.5,1.1-4.97,1.61-7.47.18-.88.31-1.75,1.47-2.41,3.38,1.32,7,2.49,10.43,4.37,3.15,1.72,6.75,2.68,10.48,2.49,1.11-.06,2.21-.11,3.32-.15,2.03-.08,3.66.5,4.59,2.53.36.78,1.11,1.37,1.67,2.05,1.9,2.29,2.94,4.83,2.96,7.9.02,6.23-.69,12.37-1.56,18.51-1.19,8.44-2.8,16.82-3.21,25.36-.06,1.31-.47,2.59-.78,4.19-3.57-.35-5.63,1.2-5.76,4.82.52,1.27,1.61-.06,2.3.51-.53,1.26-1.71,1.75-2.78,2.28-11.32,5.66-22.78,10.99-35.31,13.43-5.87,1.14-11.82,1.85-17.83,1.75-1.78-.03-3.55-.03-5.18-.91-.59-.32-1.26-.54-1.92-.31-4.3,1.53-8.6.43-12.82-.22-8.54-1.32-17.03-2.94-25.19-5.89-6.99-2.52-13.91-5.23-20.45-8.77-11.04-5.98-22.69-10.58-34.19-15.55Zm7.16,26.34c.05-1.3-.28-2.65.76-3.88.5,5.03-.68,10-.68,15.05-.2-2.19-1.63-4.2-.47-6.58.68-1.39.33-3.04.39-4.58Zm.84,188.73c2.49,4.76,1.45,11.25-2.65,15.28-.4-4.93-.7-9.58-.55-14.33,1.41.05.57,1.8,1.83,1.72,1.15-.45.14-2.17,1.37-2.68Zm-1.72-207.94c-.07.43-.56.78-.97.66-.86-.24-.64-.94-.46-1.78.87.12,1.57.22,1.43,1.11Zm-5.41,37.63c2.79,2.84,2.72,3.63-.25,4.66-.98-1.49-.24-2.89.25-4.66Zm.63,12.81c.02.62-.25,1.07-.88,1.15-.51.06-.81-.26-.81-.77,0-.48.26-.85.72-.98.51-.15.83.1.98.6Zm-1.74-5.1c.08-.13.38-.21.56-.19.26.03.33.25.25.51-.16.13-.33.38-.49.37-.42-.03-.52-.36-.33-.69Zm-52.94,194.26c.67.81.39,1.61.12,2.39-.91.11-.9-.23-.12-2.39Zm-.13,20.23c-.74-1.08-.65-1.93-.24-3.15.84,1.2.9,2.02.24,3.15Zm.16-10.46c-1.01-1.2-.8-2.19-.48-3.24q1.54,1.14.48,3.24Zm2.17-18.01c-.59,1.12-.7,2.51-1.96,3.8-.57-4.17,1.1-7.63,1.29-11.84,2.47,1.51,2.9,3.62,3.96,5.21-.64,1.67-2.58,1.47-3.29,2.84Zm2.95-8.32c-.32,0-.45.04-.52,0-1-.69-.98-1.58-.38-2.48.26-.39.79-.45,1.13-.11.86.85.67,1.71-.23,2.6Zm4.2,17.91c-.84-1-.91-2.02.17-2.9.93-.76,2.2-1.31,2.07-2.78-.16-1.76-.22-3.79-1.61-4.95-2.81-2.34-2.4-5.32-2.02-8.26.22-1.72.3-3.26-.72-4.76-.66-.97-.73-2.07-.27-3.18.21-.51.58-1.08.51-1.56-.47-2.98,1.26-4.47,4.05-5.56-1.78-4.47.04-8.88-1.26-13.07-.17-.54.22-1.29.46-1.9,1.72-4.57,3.93-8.92,6.09-13.29.18-.37.56-.65.89-1.04,2.03.29,3.19,1.91,4.58,3.05,1.91-2.29,2.07-2.48.43-3.86-1.64-1.38-.74-3.64-2.31-5,2.41.23,4.47,1.39,7.11,1.42-.94,7.97-3.16,15.46-4.74,23.24,1.86.13,2.03-1.11,2.33-2.08.96-3.07,1.92-6.14,2.74-9.24,4.3-16.17,7.68-32.55,10.73-49,.04-.22,0-.47.1-.65,1.65-3.28,1.66-6.85,2.05-10.39.41-3.74,1.19-7.44,1.81-11.15.6-3.6,1.23-7.21,1.81-10.81.58-3.61,1.04-7.24,1.69-10.83,2.09-11.44,3.11-23.04,5.1-34.5.08-.44.12-.88.17-1.32.09-.85.43-1.51,1.36-1.64.84-.11,1.55.21,1.96.96.31.57.51,1.2,1.01,2.4,2.2-6.05,1.14-12.21,3.37-17.66.33.09.45.11.54.16.09.05.19.13.23.22.09.2.23.41.22.61-1.81,43.94-3.08,87.91-6.18,132.06-2.48-1.59-.38-5.26-3-6.45-.99.24-1.09.94-1.17,1.59-.49,4.04-1.62,8.04-.74,12.18.38,1.79-.13,3.55-.5,5.27-.85,3.97-1.22,8.04-3.16,11.77-1.33,2.54-1.87,5.43-2.22,8.32-.39,3.17-1.26,5.89-3.53,8.62-2.64,3.17-5.32,6.5-7.51,10.08-1.32,2.17-3.14,4.01-4.11,6.41-.4.98-1.26,1.52-2.32,1.69-1.01.17-1.93.53-2.66,1.26-.97.98-1.96,1.06-3.31.63-1.6-.51-2.38.2-2.12,1.84.33,2.11.18,4.63,3.24,5.1.81.12,1.52.7,1.03,1.66-.35.68-1.21.83-1.73.37-1.83-1.59-3.86-1.2-5.98-.94-1.88.23-3.45-.64-4.67-2.08Zm46.02-33.18c-.01-.94-.28-1.94.2-2.87.6.24.5.73.49,1.13-.13,5.64.8,11.2,1.25,16.8.14,1.78.08,3.42-1.4,5.31-.71-3.6-.96-6.76-.55-9.85.47-3.53.04-7.01,0-10.51Zm-1.82,24.87c-1.37-2.57-1.33-9.64.1-13.1.46,4.26,1.06,8.51-.1,13.1Zm-2.7,4.16c-.52-1.6.11-2.62.49-4.17.75,1.72.48,2.78-.49,4.17Zm11.59,2.05c-7.57,12.37-14.99,24.85-20.51,38.32-2.48,6.05-4.12,12.39-5.62,18.76-1.05,4.47-1.15,8.98-.21,13.82-1.68-.52-1.89-2-3.26-2.78-.02,1.89.77,3.48.73,5.18-.11,4.67-1.78,6.16-6.37,5.55-2.89-.38-5.61-1.27-8.3-2.3-1.36-.52-2.63-1.23-3.3-2.63-1.68-3.48-2.78-7.14-3.87-11.39,2.11,1.04,3.8,1.76,5.61,2.11,2.97.57,5.79.26,8.19-1.67,1.33-1.07,2.66-1.43,4.03-.81,1.04-.59.96-1.44,1.06-2.18.7-4.96,2.78-9.56,3.75-14.45.1-.53.34-1.06.62-1.54,4.68-8.09,7.58-16.98,11.22-25.53,3.09-7.26,7.01-14.07,11.03-20.83,1.68-2.83,3.08-5.85,5.94-8.76.33,4.11,1.52,7.43-.74,11.12Zm1.71-31.54c.39,2.46,1.72,4.88.24,7.36-.69-2.48-.49-4.92-.24-7.36Zm7.68,17.89c-2.07,2.85-4.15,5.69-6.53,8.96-.17-.85-.27-1.16-.29-1.48q-.68-8.37,4.78-14.92c.63-.76,1.26-1.51,1.92-2.29,2.02,3.19,2.06,7.08.13,9.74Zm-1.13-26.39c1.87,5.27,1.38,7.57-3.87,12.77-.46-2.16.28-7.93,1.5-11.64,1.23.36.71,1.76,1.52,2.46.76-1.08-.14-2.58.85-3.59Zm4.45,21.54c-.23.01-.46.02-.68.03-.21-2.26-.41-4.53-.62-6.79,1.31,2.15,1.53,4.43,1.3,6.76Zm4.11-6.42v-3.73c.4,1.25.5,2.49,0,3.73Zm-3.74-150.94c-4.44-3.42-4.98-5.11-4.2-11.46,1.51.8,3,1.49,4.38,2.34,5.17,3.18,10.97,4.72,16.72,6.34,2.04.58,3.12,1.6,3.72,3.66,1.1,3.81,2.5,7.54,3.95,11.81-9.5-2.61-17.33-7.13-24.57-12.7Zm28.13-1.22c-.29-.09-.51-.37-1.13-.83,2.85-.19,5.29.96,7.79.03-1.15-.22-2.3-.48-3.47-.64-6.7-.91-13.34-2.11-19.86-3.92-7.55-2.1-14.03-5.98-19.5-11.57-1.77-1.81-3.18-3.75-1.9-6.48.13-.29.16-.66.13-.98-.28-2.47.42-4.57,2.17-6.36,1.29-1.32,1.32-2.83-.02-4.11-2.58-2.46-1.94-5.16-.74-7.91,1.06-2.44,2.27-4.81,3.09-7.35.75-2.34,1.7-4.63.03-7.01,1.29-.73,2.01-.04,2.71.32,6.32,3.23,12.6,6.51,19.13,9.31,11.44,4.89,23.09,9.07,35.35,11.41.53.1,1.04.3,1.56.69-10.91,1.83-21.99,1.46-33.2,2.36.76,1.11,1.58.8,2.26.81,9.65.03,19.28-.28,28.88-1.28,3.2-.33,6.42-.29,9.64-.23,10.42.19,20.85.49,31.19-1.21,3.13-.51,6.24-1.17,9.63-1.81-.42,4.97-1.69,9.62-.82,14.4,1.77-4.76,1.36-9.94,2.74-15.15,4.76-1.05,9.78-.71,14.66-1.5,4.81-.78,9.64-1.43,14.48-2.04,4.93-.62,9.88-1.1,14.82-1.69,4.75-.56,9.52-.98,14.22-2.06-2.65-1.33-5.28-.24-7.87-.08-2.65.16-5.3.41-7.95.59-2.76.18-5.52.55-8.27.85-2.76.3-5.52.56-8.26.91-2.64.34-5.26.79-7.9,1.15-2.69.37-5.39.68-8.26.48,1.87-.88,3.72-1.81,5.62-2.64,5-2.19,9.63-5.01,14.19-7.98,2.36-1.54,4.12-3.71,5.93-5.8,1.18-1.36,2.34-1.66,4.06-1.37,3.38.57,6.81.89,10.17,1.63,4.24.93,7.51-.23,9.85-4.19,2.03-3.42,4.69-6.45,6.68-9.92,1.1-1.92,1.72-4.05,2.82-6.16,6.78,7.9,14.76,14.26,22.39,20.99,1.91,1.68,3.99,3.18,6.07,4.64,1.8,1.27,3.06,2.87,3.71,4.95.79,2.51,1.96,4.92,2.24,7.9-7.74,3.44-15.9,5.9-23.19,10.31,7.86-2.8,15.45-6.43,24.02-7.67.81,2.49,1.98,4.85,2.39,7.47.24,1.52.95,2.69,2.23,3.54,2.6,1.72,4.89.7,5.15-2.39.16-1.87.07-3.77.08-5.65,0-1.32,0-2.65,0-4.14.92.27,1.06,1.03,1.25,1.69.35,1.28.55,2.61.96,3.87,1.08,3.32.04,5.69-2.86,7.6-4.22,2.78-6.72,6.95-8.71,11.5-.7,1.59-.11,2.99.41,4.56-15.05.75-29.73,1.11-44.37-1.28-7.17-1.17-14.44-1.74-21.72-2.25,5.46,1.93,11.15,2.84,16.84,3.78-.02.28-.04.55-.06.83-17.03.76-34.05,1.51-51.31,2.28.41-2.39,1.75-3.17,3.69-3.4,3.71-.43,7.42-.94,11.13-1.41,0-.26,0-.51-.01-.77-1.19.05-2.38.1-3.56.16-1.22.06-2.49-.08-3.64.24-4.49,1.25-8.14.02-11.23-3.37-.65-.72-1.28-1.55-2.63-1.97.86,2.91,3.22,4.12,5.76,5.96-17.72,3.45-35.03,5.87-52.48,7.4,8.05,1.33,15.97-.84,24.01-.83-1.21,1.12-2.75,1.26-4.2,1.58-8.88,1.99-17.95,2.82-26.91,4.29-7.2,1.18-13.56-1.01-20.1-3.05Zm100.83,2.87c-1,.79-1.92.76-2.92,0q1.41-2.11,2.92,0Zm-23.74-7.89c-3.52.61-7.06.8-10.59.36-.03-.23-.06-.46-.09-.69,3.87-.7,7.73-1.4,11.77-2.14.39,1.41.08,2.27-1.08,2.47Zm-38.67,27.79c-8.62-.51-17.26-.94-25.68-3.19-1.86-.5-3.02-1.34-3.87-3.16-1.75-3.75-2.53-7.78-4-11.57.86-.93,1.69-.31,2.49-.16,4.02.8,7.95,1.22,12.14.57,7.54-1.17,15.16-1.87,22.71-3.11.2-.03.42.09.97.21,1.31,6.76,2.88,13.6,5.36,20.44-3.76,0-6.95.16-10.13-.03Zm7.02,110.89h7.46s0,.09,0,.13h-7.46s0-.09,0-.13Zm4.47,10.79c3.19-.99,6.15-1.64,9.23-1.5-2.92.9-5.89,1.54-9.23,1.5Zm12.39-11.52h2.49c-.71.47-1.27.37-2.49,0Zm13.83-46.81c.38,1.03.62,1.69.87,2.34-.68-.52-1.12-1.11-.87-2.34Zm11,26.11c1.87.34,2.5,1.56,3.26,2.64-1.25-.35-2.28-1.05-3.26-2.64Zm12.47,37.03c-.56.14-.41-.3-.41-.5-.03-2.97.5-5.88,1.02-8.75.49,3.16-.48,6.15-.61,9.24Zm23.99-124.1c-.76.15-1.54.14-2.32.18-6.31.28-12.62.46-18.91.84-8.16.5-16.31,1.33-24.47,1.69-7.51.33-15.05.69-22.57-.23-2.28-.28-3.55-1.33-4.34-3.44-2.7-7.18-3.94-14.7-5.58-22.4,4.52-1.41,8.73-2.97,13.4-1.56,6.78,2.06,13.59,4.02,20.38,6.05,3.28.98,6.57,1.95,10.07,2.59-.51-1.72-2.56-1.34-3.22-2.64,3.68.74,7.03,2.43,10.53,3.68,2.66.95,5.3,1.92,8.19,1.92-6.23-3.89-13.29-5.88-19.8-9.12,3.05.64,5.96,1.69,8.85,2.84,4.63,1.85,9.25,3.71,13.9,5.48,1.09.42,2.21,1.09,3.74.58-.82-1.97-2.75-2.32-4.26-3.13-1.62-.87-3.33-1.58-4.9-2.84,4.81,0,9.61-.02,14.42.01,1.3,0,2.59.47,2.79,1.87.22,1.59,1.42,2.46,2.12,3.59.03.3.12.54.06.73-.26.78-4.54,7.08-5.23,7.83-.43.47-1.06.85-.99,1.88,2.08.33,2.7-1.93,4.4-2.5-.31,1.25-1.69,1.68-1.9,3.05,1.39.86,2.88.38,4.31.06.81-.18,1.3-.82,1.42-1.67.08-.55.2-1.12.11-1.65-1.1-6.14.79-12.33-.38-18.47-.2-1.05-.31-2.19.16-3.31,1.05.57.72,1.56.77,2.36.41,6.41.77,12.83,1.15,19.25.06,1,.28,1.96.5,2.94.47,2.09-.26,3.13-2.38,3.54Zm-40.47-19.98c1.23-.09,1.97.43,2.7.98-.95.14-1.79-.11-2.7-.98Zm44.02,16.49c.86-8.89-.21-17.14-.75-25.19.69-1.01,1.53-.79,2.27-.81,5.98-.16,12-.09,17.94-.42,8.86-.49,17.7.45,26.53-.25,3.75-.3,7.43-.96,11.27-2.07,1.35,4.51,1.77,8.96,2.56,13.47-19.5,6.92-38.91,12.87-59.82,15.28Zm59.52-32.21c.28-1.43,1.18-2.19,1.93-3.03,3.44-3.84,7.69-6.66,11.97-9.43,3.41-2.2,4.06-3.84,3.27-7.76-.43-2.15-1.34-4.21-1.43-6.8,1.95-.78,3.71-1.42,5.43-2.17,2.53-1.12,3.19-2.6,2.51-5.35-.08-.32-.19-.64-.28-.96-.8-2.83.45-5.47,3.15-6.69.53-.24,1.14-.41,1.58-.05,1.56,1.28,3.56,2.02,3.73,4.66.35,5.41,1.02,10.8,1.62,16.2.21,1.92-.2,3.33-1.95,4.52-9.57,6.47-19.59,12.11-30.29,16.52-.29.12-.61.17-1.25.34Zm12.26,201.52c-.42-.65-.18-.97.52-1.12,0,.47-.1.85-.52,1.12Zm2.09-6.51c-.38-.56.08-.94.42-1.64.26.82.2,1.29-.42,1.64Zm-1.73-183.63c-.41-3.94-.76-7.88-1.25-11.81-.21-1.62.82-2.1,1.91-2.69,3.3-1.79,6.59-3.6,9.88-5.4,3.39-1.85,6.64-3.91,10.04-6.66.59,2.34.79,4.38.87,6.4.11,2.86,1.03,6.04-.19,8.51-1.19,2.39-4.47,3.02-6.85,4.38-3.83,2.19-7.72,4.29-11.61,6.37-.84.45-1.66,1.15-2.79.89Zm47.72,146.14c-.79-.06-1.13-.61-1.1-1.35.03-.62.39-1.05,1.03-1.03.83.03,1.01.68,1.11,1.19-.07.8-.38,1.24-1.04,1.19Zm1.76-5.62c-1.21-.04-1.47-1.12-1.61-2.09-.12-.85.22-1.54,1.17-1.58,1.22-.05,1.66.79,1.81,1.84-.05.93-.26,1.87-1.37,1.83Zm3.95-6.31c-.49-.01-.79-.34-.78-.83.02-.62.38-1.01,1.02-.99.48.02.74.35.8.83-.06.63-.41,1-1.04.98Zm35.59-94.42c-1.1-.46-1.14-1.48-1.42-2.36-.83-2.63-1.47-5.34-3.19-7.6-.71-.93-.84-2.03-.87-3.15-.05-1.91-.54-3.73-1.12-5.53-.4-1.24-.77-2.57-2.22-3.1-1.35.37-1.28,1.49-1.16,2.42.27,2.19.59,4.39,1.86,6.32,1.24,1.88,1.73,3.78.04,5.79-1.1,1.3-1.12,2.85-.13,4.32.81,1.21.55,2.3-.39,3.31-.69.74-1.08,1.64-1.53,2.54-1.17,2.32-2.92,4.42-2.24,7.29-2.46,4.22-1.24,9.47-3.41,13.58-1.86,3.53-.97,7.41-2.56,10.85-.66,1.42-.03,3.07,0,4.61.02,1.17-.05,2.2-.9,3.07-.75.76-1.08,1.65-.93,2.72.21,1.48-.49,2.51-1.58,3.44-1,.86-1.81,1.92-2.27,3.14.56,1.48,1.91.98,2.88,1.33,1.31.47,1.88,1.38,1.1,2.55-.97,1.45-1.33,3-1.5,4.68-.05.51-.33,1.11-.7,1.47-1.62,1.58-2.59,3.59-3.83,5.42-1.18,1.72-2.2,3.54-3.91,4.9-.98.78-1.83,1.95-1.74,3.65,1.25.88,3.08,1.29,3.3,3.49.26,2.61-.87,4.31-3.49,4.49q-2.86.2-3.04,3.24c-.2,3.31-2.83,5.3-5.62,4.22-.74-.28-1.4-.69-1.74-1.45-.66-1.46,1.24-6.2,2.79-6.83.88-.36,1.99-.35,2.18-1.51-.31-.78-.88-.94-1.42-.84-1.98.37-3.97.35-5.97.42-1.03.04-1.98.37-2.67,1.17-2.09,2.45-4.44,2.65-7.07.92-.16-.11-.43-.05-.82-.09-1.07,1.1-2.42,1.98-3.87,2.81-1.95,1.12-3.45,2.77-2.95,5.41.59,3.15-1.17,5.2-3.25,7.05-5-2-4.91-1.94-7.96,2.66-1.69,2.54-2.43,5.07-1.87,8.14.28,1.53.53,2.59,2.11,3.33,1.77.83,1.63,2.2-.13,3.15-.68.37-1.47.53-2.15.89-1.52.79-2.69,1.81-3,3.69-.27,1.63-.81,3.23-1.81,4.61-.19.27-.54.6-.5.84.66,3.59-2.65,6.1-2.53,9.57.05,1.44-.48,2.86-2.24,3.39-.64-1.19.2-2.18.51-3.13,5.17-16.16,9.14-32.62,12.45-49.24,2.44-12.29,4.13-24.71,5.14-37.16.83-10.26,1.93-20.5,2.37-30.81.87-20.39,1.51-40.78,1.02-61.19-.25-10.3-.55-20.62-1.22-30.9-.39-6.06-.97-12.13-1.73-18.18-.9-7.13-1.61-14.28-2.73-21.4-.95-6.01-2.13-11.98-3.27-17.95-1.19-6.2-2.25-12.41-2.93-18.68-.3-2.75-1.09-5.41-1.51-8.15-.38-2.48.34-4.14,2.37-5.31,3.94-2.26,7.65-4.91,11.84-6.74,2.44-1.06,4.87-2.16,6.84-4.02.79-.74,1.68-.86,2.75-.82,2.79.09,3.49-.74,3.31-3.55-.05-.82-.68-1.71.28-2.41.97.08.88.87,1.01,1.48,5.06,24.42,11.32,48.54,17.86,72.6,6.63,24.4,14.23,48.48,23.3,72.08,1.84,4.79,2.74,9.81,3.88,14.78,1.34,5.83,2.61,11.68,3.9,17.52.19.85.53,1.7.02,2.77Zm4.16-3.59c-.73.39-1.28.01-1.64-.6-.22-.37-.32-.81-.43-1.23-1.08-4.34-2.15-8.69-3.23-13.04,2.48,4.27,3.95,8.94,5.78,13.46.23.56.07,1.12-.48,1.42Zm6.54,73.59l.21-4.14.7.02c.49,1.48,0,2.83-.91,4.12Z"/>
  <path class="cls-1" d="m226.4,260.38s-3.78-1.47-4.98-2.03c-1.1-.51,2.03,1.85,4.47,3.3,5.25,3.13,12.31,5.32,18.22,2.91-1.73-.36-2.94-.69-4.17-.85-4.65-.59-10.4-1.98-13.53-3.33Z"/>
  <path class="cls-1" d="m101.31,401.87c.4,6.1,13.96,45.45,17.01,49.36-.58-3.61-14.89-45.16-17.01-49.36Z"/>
  <path class="cls-1" d="m175.26,470.06c2.31-1.83,4.25-3.98,5.67-6.57-.09-.09-.19-.17-.28-.26-2.15,1.99-3.7,4.46-5.38,6.83Z"/>
  <path class="cls-1" d="m319.76,267.84c2.82-.1,6.65-1.81,9.58-2-.59-1.49-2.85-.98-3.84-.84-.98.15-1.98.34-2.89.7-2.16.86-4.11.43-6-.71-.65-.39-1.31-.77-1.97-1.16.63,2.79,2.31,4.1,5.12,4.01Z"/>
  <path class="cls-1" d="m313.47,287.4c-.91,2.51-2.32,4.82-3.62,6.96,4.5-1.37,5.68-4.01,3.62-6.96Z"/>
  <path class="cls-1" d="m338.52,260.08c-1.98-.04-3.53,2.23-4.87,2.51,1.49.16,3.55-.71,4.87-2.51Z"/>
  <path class="cls-1" d="m287.04,328.45c.15-.14.13-.71-.02-.86-.79-.78-1.5-.44-2.31.4.83.91,1.54,1.25,2.33.46Z"/>
  <path class="cls-1" d="m391.53,466.78c.98.89,2.18.44,3.33.32,5.29-.51,10.57-1.16,15.88-1.48,8.09-.48,16.08-1.69,24.1-2.72.85-.11,1.82-.11,2.04-1.26-.21-.64-.74-.95-1.28-.89-14.18,1.56-28.36,3.14-42.54,4.74-.61.07-1.34.2-1.52,1.28Z"/>
  <path class="cls-1" d="m376.73,468.43c-3.5,1.52-7.32,2.16-10.24,5.11,4.24-.03,8.5.7,12.77-1.21q-1.89-1.52-2.53-3.9Z"/>
  <path class="cls-1" d="m386.04,386.12c1.62-3.02,3.25-6.05,4.87-9.07-2.95,2.31-4.32,5.47-4.87,9.07Z"/>
  <path class="cls-1" d="m139.83,235.07c.6-.93,1.07-1.95,1.76-2.81,1.39-1.72,2.95-1.88,4.55-.37,1.19,1.12,2.44,2.24,3.1,3.6-.14,1.09-1.37,1.01-1.47,2.16,1.49,1.27,3.45.19,4.83,1.13,1.46,1.01,2.4,2.52,3.21,4.29-2.83,1.71-5.9,2.76-8.03,5.31-3.41,4.08-4.5,5.94-4.38,8.47,1.17-.92,1.79-2.08,2.45-3.21,1.36-2.34,3.28-4.18,5.33-5.88,1.04-.86,2.23-1.53,3.65-1.26,1.85.35,3.72.67,5.5,1.24,3.11.98,5.01,3.81,4.83,7.04-.96-.18-1.91-.39-2.86-.52-.77-.11-1.55-.11-2.21.44-2.83,2.36-5.37,4.97-7.03,8.31-.52,1.05-.69,2.09.14,3.11,1.47,1.8,2.75,3.85,4.94,4.84,3.32,1.49,6.6,3.01,9.28,5.29.61-.3.93-.41,1.21-.59,3.27-2.03,3.33-2.42.07-4.68-1.13-.78-1.24-1.69-1.25-2.82-.03-3.54.53-7.09-.33-10.6-.11-.43-.21-.94.24-1.18,1.32-.7.48-1.53.08-2.18-.64-1.04-1.43-2.03-1.68-3.22-.37-1.79-1.52-2.87-2.92-3.84-2.76-1.91-5.04-4.3-7.14-6.91-2.77-3.46-5.41-7.03-8.74-10-1.44-1.29-2.94-2.32-5.28-2.4-1.14,3.02-3.45,5.64-3.64,9.36,1.26-.4,1.34-1.39,1.79-2.09Zm25.54,27.57c-1.41,2.55-2.28,5.23-2.66,8.39-3.39-.83-6.02-1.98-7.7-4.78-.77-1.28-1.02-2.38-.14-3.66,1.12-1.64,2.17-3.33,3.53-4.8,1.96-2.12,3.45-2.47,5.47-1.22,2.1,1.3,2.83,3.68,1.51,6.07Z"/>
  <path class="cls-1" d="m146.55,263.89c-1.83-.73-1.96-2.8-3.32-4.06-.4,3.18,2.61,5.96,7.39,6.86-1.03-1.68-2.62-2.22-4.07-2.8Z"/>
  <path class="cls-1" d="m343.2,400.51c-5.48,3.56-11.25,6.7-15.99,11.27,5.43-3.63,11.15-6.84,15.99-11.27Z"/>
  <path class="cls-1" d="m335.9,402.48c.13.23.26.46.39.69,3.72-2.52,7.44-5.05,11.16-7.58-.13-.19-.26-.38-.39-.56-3.93,2.17-7.41,5.01-11.16,7.45Z"/>
  <path class="cls-1" d="m271.48,330.9c2.94-.98,5.13-1.29,8.45-1.3.96,0,2.79-.7,3.79-1.09.53-.21.76-.39.58-.47-1.1-.52-3.35-.43-4.77-.25-2.59.33-5.01.51-7.24,1.34-1.39.52-3.03.73-4.19,2.57,1.59.19,2.25-.43,3.38-.8Z"/>
</svg>